<svg width="56" height="55" viewBox="0 0 56 55" fill="none" xmlns="http://www.w3.org/2000/svg">
<path d="M28.8479 4.92705L49.4729 13.177C50.275 13.4978 50.9167 14.4603 50.9167 15.3082V22.9166C50.9167 24.177 49.8855 25.2082 48.625 25.2082H7.37504C6.11462 25.2082 5.08337 24.177 5.08337 22.9166V15.3082C5.08337 14.4603 5.72505 13.4978 6.52714 13.177L27.1521 4.92705C27.6105 4.74372 28.3896 4.74372 28.8479 4.92705Z" stroke="#FF745C" stroke-width="1.5" stroke-miterlimit="10" stroke-linecap="round" stroke-linejoin="round"/>
<path d="M50.9167 50.4167H5.08337V43.5417C5.08337 42.2813 6.11462 41.25 7.37504 41.25H48.625C49.8855 41.25 50.9167 42.2813 50.9167 43.5417V50.4167Z" stroke="#FF745C" stroke-width="1.5" stroke-miterlimit="10" stroke-linecap="round" stroke-linejoin="round"/>
<path d="M9.66663 41.2499V25.2083" stroke="#FF745C" stroke-width="1.5" stroke-miterlimit="10" stroke-linecap="round" stroke-linejoin="round"/>
<path d="M18.8334 41.2499V25.2083" stroke="#FF745C" stroke-width="1.5" stroke-miterlimit="10" stroke-linecap="round" stroke-linejoin="round"/>
<path d="M28 41.2499V25.2083" stroke="#FF745C" stroke-width="1.5" stroke-miterlimit="10" stroke-linecap="round" stroke-linejoin="round"/>
<path d="M37.1666 41.2499V25.2083" stroke="#FF745C" stroke-width="1.5" stroke-miterlimit="10" stroke-linecap="round" stroke-linejoin="round"/>
<path d="M46.3334 41.2499V25.2083" stroke="#FF745C" stroke-width="1.5" stroke-miterlimit="10" stroke-linecap="round" stroke-linejoin="round"/>
<path d="M2.79163 50.4167H53.2083" stroke="#FF745C" stroke-width="1.5" stroke-miterlimit="10" stroke-linecap="round" stroke-linejoin="round"/>
<path d="M28 19.4792C29.8985 19.4792 31.4375 17.9402 31.4375 16.0417C31.4375 14.1433 29.8985 12.6042 28 12.6042C26.1015 12.6042 24.5625 14.1433 24.5625 16.0417C24.5625 17.9402 26.1015 19.4792 28 19.4792Z" stroke="#FF745C" stroke-width="1.5" stroke-miterlimit="10" stroke-linecap="round" stroke-linejoin="round"/>
</svg>
