<svg width="52" height="52" viewBox="0 0 52 52" fill="none" xmlns="http://www.w3.org/2000/svg">
<rect width="52" height="52" rx="26" fill="#FF745C"/>
<path d="M20.9 34.6C22.4 35.5 24.2 36 26 36C31.5 36 36 31.5 36 26C36 20.5 31.5 16 26 16C20.5 16 16 20.5 16 26C16 27.8 16.5 29.5 17.3 31L16.4404 34.306C16.2457 35.0549 16.9389 35.7317 17.683 35.5191L20.9 34.6Z" stroke="#223F42" stroke-width="1.5" stroke-miterlimit="10" stroke-linecap="round" stroke-linejoin="round"/>
<path d="M30.5 28.8485C30.5 29.0105 30.4639 29.177 30.3873 29.339C30.3107 29.501 30.2116 29.654 30.0809 29.798C29.86 30.041 29.6167 30.2165 29.3418 30.329C29.0714 30.4415 28.7784 30.5 28.4629 30.5C28.0033 30.5 27.512 30.392 26.9937 30.1715C26.4755 29.951 25.9572 29.654 25.4434 29.2805C24.9251 28.9025 24.4339 28.484 23.9652 28.0205C23.501 27.5525 23.0819 27.062 22.7078 26.549C22.3383 26.036 22.0408 25.523 21.8245 25.0145C21.6082 24.5015 21.5 24.011 21.5 23.543C21.5 23.237 21.5541 22.9445 21.6622 22.6745C21.7704 22.4 21.9417 22.148 22.1805 21.923C22.469 21.6395 22.7844 21.5 23.1179 21.5C23.2441 21.5 23.3703 21.527 23.483 21.581C23.6002 21.635 23.7038 21.716 23.7849 21.833L24.8305 23.3045C24.9116 23.417 24.9702 23.5205 25.0108 23.6195C25.0513 23.714 25.0739 23.8085 25.0739 23.894C25.0739 24.002 25.0423 24.11 24.9792 24.2135C24.9206 24.317 24.835 24.425 24.7268 24.533L24.3843 24.8885C24.3348 24.938 24.3122 24.9965 24.3122 25.0685C24.3122 25.1045 24.3167 25.136 24.3257 25.172C24.3393 25.208 24.3528 25.235 24.3618 25.262C24.4429 25.4105 24.5826 25.604 24.7809 25.838C24.9837 26.072 25.2 26.3105 25.4344 26.549C25.6778 26.7875 25.9121 27.008 26.151 27.2105C26.3853 27.4085 26.5791 27.5435 26.7323 27.6245C26.7549 27.6335 26.7819 27.647 26.8135 27.6605C26.8495 27.674 26.8856 27.6785 26.9261 27.6785C27.0028 27.6785 27.0613 27.6515 27.1109 27.602L27.4534 27.2645C27.5661 27.152 27.6743 27.0665 27.7779 27.0125C27.8816 26.9495 27.9852 26.918 28.0979 26.918C28.1835 26.918 28.2737 26.936 28.3728 26.9765C28.472 27.017 28.5756 27.0755 28.6883 27.152L30.18 28.2095C30.2972 28.2905 30.3783 28.385 30.4279 28.4975C30.473 28.61 30.5 28.7225 30.5 28.8485Z" stroke="#223F42" stroke-width="1.5" stroke-miterlimit="10"/>
</svg>
