<svg width="52" height="52" viewBox="0 0 52 52" fill="none" xmlns="http://www.w3.org/2000/svg">
<rect width="52" height="52" rx="26" fill="#FF745C"/>
<path d="M23 36H29C34 36 36 34 36 29V23C36 18 34 16 29 16H23C18 16 16 18 16 23V29C16 34 18 36 23 36Z" stroke="#223F42" stroke-width="1.5" stroke-linecap="round" stroke-linejoin="round"/>
<path d="M26 29.5C27.933 29.5 29.5 27.933 29.5 26C29.5 24.067 27.933 22.5 26 22.5C24.067 22.5 22.5 24.067 22.5 26C22.5 27.933 24.067 29.5 26 29.5Z" stroke="#223F42" stroke-width="1.5" stroke-linecap="round" stroke-linejoin="round"/>
<path d="M31.6361 21H31.6477" stroke="#223F42" stroke-width="2" stroke-linecap="round" stroke-linejoin="round"/>
</svg>
