<svg width="156" height="59" viewBox="0 0 156 59" fill="none" xmlns="http://www.w3.org/2000/svg">
<rect width="155.675" height="59" rx="8" fill="black"/>
<path d="M33.1148 30.5546C33.0761 26.3647 36.6335 24.3263 36.7961 24.2314C34.7815 21.3675 31.6588 20.9762 30.5615 20.945C27.9388 20.6759 25.3948 22.4751 24.0588 22.4751C22.6961 22.4751 20.6388 20.971 18.4215 21.0152C15.5681 21.0581 12.8988 22.6688 11.4348 25.17C8.41346 30.2699 10.6668 37.7644 13.5615 41.8867C15.0095 43.9056 16.7015 46.1598 18.9161 46.0805C21.0828 45.9934 21.8921 44.7337 24.5068 44.7337C27.0975 44.7337 27.8575 46.0805 30.1161 46.0298C32.4415 45.9934 33.9055 44.0018 35.3028 41.9647C36.9761 39.6507 37.6481 37.3718 37.6748 37.2548C37.6201 37.2366 33.1588 35.5765 33.1148 30.5546Z" fill="white"/>
<path d="M28.8481 18.2332C30.0135 16.8123 30.8108 14.8792 30.5895 12.9175C28.9028 12.9903 26.7935 14.055 25.5788 15.4447C24.5041 16.6693 23.5441 18.6765 23.7921 20.5641C25.6868 20.7019 27.6321 19.632 28.8481 18.2332Z" fill="white"/>
<path d="M48.5878 21V12.805H51.2718C52.1005 12.805 52.8228 12.9737 53.4388 13.311C54.0548 13.6483 54.5315 14.125 54.8688 14.741C55.2061 15.3497 55.3748 16.0683 55.3748 16.897C55.3748 17.7183 55.2061 18.437 54.8688 19.053C54.5315 19.669 54.0548 20.1493 53.4388 20.494C52.8228 20.8313 52.1005 21 51.2718 21H48.5878ZM49.6658 20.01H51.2828C51.8915 20.01 52.4158 19.8817 52.8558 19.625C53.3031 19.3683 53.6478 19.009 53.8898 18.547C54.1318 18.0777 54.2528 17.5277 54.2528 16.897C54.2528 16.259 54.1281 15.709 53.8788 15.247C53.6368 14.785 53.2921 14.4293 52.8448 14.18C52.4048 13.9233 51.8841 13.795 51.2828 13.795H49.6658V20.01ZM59.4361 21.132C58.8641 21.132 58.3471 21 57.8851 20.736C57.4231 20.4647 57.0565 20.0943 56.7851 19.625C56.5138 19.1557 56.3781 18.624 56.3781 18.03C56.3781 17.436 56.5101 16.908 56.7741 16.446C57.0455 15.984 57.4121 15.6173 57.8741 15.346C58.3361 15.0747 58.8568 14.939 59.4361 14.939C60.0081 14.939 60.5251 15.0747 60.9871 15.346C61.4491 15.61 61.8121 15.973 62.0761 16.435C62.3475 16.897 62.4831 17.4287 62.4831 18.03C62.4831 18.6313 62.3438 19.1667 62.0651 19.636C61.7865 20.098 61.4161 20.4647 60.9541 20.736C60.4995 21 59.9935 21.132 59.4361 21.132ZM59.4361 20.142C59.8028 20.142 60.1328 20.0503 60.4261 19.867C60.7268 19.6837 60.9615 19.4307 61.1301 19.108C61.3061 18.7853 61.3941 18.426 61.3941 18.03C61.3941 17.6267 61.3061 17.271 61.1301 16.963C60.9615 16.6477 60.7268 16.3983 60.4261 16.215C60.1328 16.0243 59.8028 15.929 59.4361 15.929C59.0621 15.929 58.7248 16.0243 58.4241 16.215C58.1308 16.3983 57.8961 16.6477 57.7201 16.963C57.5441 17.271 57.4561 17.6267 57.4561 18.03C57.4561 18.426 57.5441 18.7853 57.7201 19.108C57.8961 19.4307 58.1308 19.6837 58.4241 19.867C58.7248 20.0503 59.0621 20.142 59.4361 20.142ZM65.074 21L63.039 15.071H64.172L65.789 20.032L65.393 20.021L66.977 15.071H67.945L69.529 20.021L69.133 20.032L70.761 15.071H71.883L69.848 21H68.869L67.307 16.05H67.615L66.053 21H65.074ZM72.7979 21V15.071H73.7989V16.226L73.6339 16.127C73.7805 15.753 74.0152 15.4633 74.3379 15.258C74.6679 15.0453 75.0529 14.939 75.4929 14.939C75.9182 14.939 76.2959 15.0343 76.6259 15.225C76.9632 15.4157 77.2272 15.6797 77.4179 16.017C77.6159 16.3543 77.7149 16.7357 77.7149 17.161V21H76.6809V17.491C76.6809 17.161 76.6222 16.8823 76.5049 16.655C76.3875 16.4277 76.2189 16.2517 75.9989 16.127C75.7862 15.995 75.5405 15.929 75.2619 15.929C74.9832 15.929 74.7339 15.995 74.5139 16.127C74.3012 16.2517 74.1325 16.4313 74.0079 16.666C73.8832 16.8933 73.8209 17.1683 73.8209 17.491V21H72.7979ZM79.1787 21V12.673H80.2017V21H79.1787ZM84.6051 21.132C84.0331 21.132 83.5161 21 83.0541 20.736C82.5921 20.4647 82.2254 20.0943 81.9541 19.625C81.6827 19.1557 81.5471 18.624 81.5471 18.03C81.5471 17.436 81.6791 16.908 81.9431 16.446C82.2144 15.984 82.5811 15.6173 83.0431 15.346C83.5051 15.0747 84.0257 14.939 84.6051 14.939C85.1771 14.939 85.6941 15.0747 86.1561 15.346C86.6181 15.61 86.9811 15.973 87.2451 16.435C87.5164 16.897 87.6521 17.4287 87.6521 18.03C87.6521 18.6313 87.5127 19.1667 87.2341 19.636C86.9554 20.098 86.5851 20.4647 86.1231 20.736C85.6684 21 85.1624 21.132 84.6051 21.132ZM84.6051 20.142C84.9717 20.142 85.3017 20.0503 85.5951 19.867C85.8957 19.6837 86.1304 19.4307 86.2991 19.108C86.4751 18.7853 86.5631 18.426 86.5631 18.03C86.5631 17.6267 86.4751 17.271 86.2991 16.963C86.1304 16.6477 85.8957 16.3983 85.5951 16.215C85.3017 16.0243 84.9717 15.929 84.6051 15.929C84.2311 15.929 83.8937 16.0243 83.5931 16.215C83.2997 16.3983 83.0651 16.6477 82.8891 16.963C82.7131 17.271 82.6251 17.6267 82.6251 18.03C82.6251 18.426 82.7131 18.7853 82.8891 19.108C83.0651 19.4307 83.2997 19.6837 83.5931 19.867C83.8937 20.0503 84.2311 20.142 84.6051 20.142ZM90.7243 21.132C90.3357 21.132 89.991 21.0623 89.6903 20.923C89.397 20.7763 89.166 20.5783 88.9973 20.329C88.8287 20.0723 88.7443 19.779 88.7443 19.449C88.7443 19.1337 88.8103 18.8513 88.9423 18.602C89.0817 18.3453 89.2943 18.129 89.5803 17.953C89.8737 17.777 90.2403 17.6523 90.6803 17.579L92.8803 17.216V18.074L90.9113 18.404C90.53 18.47 90.2513 18.591 90.0753 18.767C89.9067 18.943 89.8223 19.1593 89.8223 19.416C89.8223 19.658 89.9177 19.8597 90.1083 20.021C90.3063 20.1823 90.552 20.263 90.8453 20.263C91.2193 20.263 91.542 20.186 91.8133 20.032C92.092 19.8707 92.3083 19.6543 92.4623 19.383C92.6237 19.1117 92.7043 18.811 92.7043 18.481V16.974C92.7043 16.6513 92.5833 16.391 92.3413 16.193C92.1067 15.9877 91.795 15.885 91.4063 15.885C91.069 15.885 90.7683 15.973 90.5043 16.149C90.2477 16.3177 90.057 16.545 89.9323 16.831L89.0413 16.369C89.1513 16.0977 89.3273 15.8557 89.5693 15.643C89.8113 15.423 90.0937 15.2507 90.4163 15.126C90.739 15.0013 91.0763 14.939 91.4283 14.939C91.883 14.939 92.2827 15.027 92.6273 15.203C92.972 15.3717 93.2397 15.61 93.4303 15.918C93.6283 16.2187 93.7273 16.5707 93.7273 16.974V21H92.7263V19.878L92.9133 19.944C92.7887 20.1787 92.62 20.384 92.4073 20.56C92.1947 20.736 91.9453 20.8753 91.6593 20.978C91.3733 21.0807 91.0617 21.132 90.7243 21.132ZM98.0085 21.132C97.4512 21.132 96.9488 20.9963 96.5015 20.725C96.0615 20.4537 95.7132 20.0833 95.4565 19.614C95.1998 19.1447 95.0715 18.6203 95.0715 18.041C95.0715 17.447 95.1998 16.919 95.4565 16.457C95.7132 15.9877 96.0615 15.6173 96.5015 15.346C96.9488 15.0747 97.4512 14.939 98.0085 14.939C98.4998 14.939 98.9362 15.0453 99.3175 15.258C99.6988 15.4633 99.9995 15.742 100.219 16.094L100.054 16.347V12.673H101.088V21H100.087V19.735L100.219 19.911C100.014 20.2997 99.7135 20.6003 99.3175 20.813C98.9288 21.0257 98.4925 21.132 98.0085 21.132ZM98.0965 20.142C98.4705 20.142 98.8042 20.0503 99.0975 19.867C99.3908 19.6837 99.6218 19.4343 99.7905 19.119C99.9665 18.7963 100.054 18.437 100.054 18.041C100.054 17.6377 99.9665 17.2783 99.7905 16.963C99.6218 16.6403 99.3908 16.3873 99.0975 16.204C98.8042 16.0207 98.4705 15.929 98.0965 15.929C97.7298 15.929 97.3962 16.0243 97.0955 16.215C96.8022 16.3983 96.5712 16.6477 96.4025 16.963C96.2338 17.271 96.1495 17.6303 96.1495 18.041C96.1495 18.437 96.2338 18.7963 96.4025 19.119C96.5712 19.4343 96.8022 19.6837 97.0955 19.867C97.3888 20.0503 97.7225 20.142 98.0965 20.142ZM107.389 21.132C106.817 21.132 106.3 21 105.838 20.736C105.376 20.4647 105.01 20.0943 104.738 19.625C104.467 19.1557 104.331 18.624 104.331 18.03C104.331 17.436 104.463 16.908 104.727 16.446C104.999 15.984 105.365 15.6173 105.827 15.346C106.289 15.0747 106.81 14.939 107.389 14.939C107.961 14.939 108.478 15.0747 108.94 15.346C109.402 15.61 109.765 15.973 110.029 16.435C110.301 16.897 110.436 17.4287 110.436 18.03C110.436 18.6313 110.297 19.1667 110.018 19.636C109.74 20.098 109.369 20.4647 108.907 20.736C108.453 21 107.947 21.132 107.389 21.132ZM107.389 20.142C107.756 20.142 108.086 20.0503 108.379 19.867C108.68 19.6837 108.915 19.4307 109.083 19.108C109.259 18.7853 109.347 18.426 109.347 18.03C109.347 17.6267 109.259 17.271 109.083 16.963C108.915 16.6477 108.68 16.3983 108.379 16.215C108.086 16.0243 107.756 15.929 107.389 15.929C107.015 15.929 106.678 16.0243 106.377 16.215C106.084 16.3983 105.849 16.6477 105.673 16.963C105.497 17.271 105.409 17.6267 105.409 18.03C105.409 18.426 105.497 18.7853 105.673 19.108C105.849 19.4307 106.084 19.6837 106.377 19.867C106.678 20.0503 107.015 20.142 107.389 20.142ZM111.771 21V15.071H112.772V16.226L112.607 16.127C112.753 15.753 112.988 15.4633 113.311 15.258C113.641 15.0453 114.026 14.939 114.466 14.939C114.891 14.939 115.269 15.0343 115.599 15.225C115.936 15.4157 116.2 15.6797 116.391 16.017C116.589 16.3543 116.688 16.7357 116.688 17.161V21H115.654V17.491C115.654 17.161 115.595 16.8823 115.478 16.655C115.36 16.4277 115.192 16.2517 114.972 16.127C114.759 15.995 114.513 15.929 114.235 15.929C113.956 15.929 113.707 15.995 113.487 16.127C113.274 16.2517 113.105 16.4313 112.981 16.666C112.856 16.8933 112.794 17.1683 112.794 17.491V21H111.771ZM122.462 21.066C121.882 21.066 121.435 20.901 121.12 20.571C120.812 20.241 120.658 19.7753 120.658 19.174V16.05H119.58V15.071H119.8C120.064 15.071 120.273 14.9903 120.427 14.829C120.581 14.6677 120.658 14.455 120.658 14.191V13.707H121.681V15.071H123.012V16.05H121.681V19.141C121.681 19.339 121.71 19.5113 121.769 19.658C121.835 19.8047 121.941 19.922 122.088 20.01C122.234 20.0907 122.429 20.131 122.671 20.131C122.722 20.131 122.784 20.1273 122.858 20.12C122.938 20.1127 123.012 20.1053 123.078 20.098V21C122.982 21.022 122.876 21.0367 122.759 21.044C122.641 21.0587 122.542 21.066 122.462 21.066ZM124.414 21V12.673H125.437V16.226L125.25 16.127C125.397 15.753 125.631 15.4633 125.954 15.258C126.284 15.0453 126.669 14.939 127.109 14.939C127.534 14.939 127.912 15.0343 128.242 15.225C128.579 15.4157 128.843 15.6797 129.034 16.017C129.232 16.3543 129.331 16.7357 129.331 17.161V21H128.297V17.491C128.297 17.161 128.235 16.8823 128.11 16.655C127.993 16.4277 127.828 16.2517 127.615 16.127C127.402 15.995 127.157 15.929 126.878 15.929C126.607 15.929 126.361 15.995 126.141 16.127C125.921 16.2517 125.749 16.4313 125.624 16.666C125.499 16.8933 125.437 17.1683 125.437 17.491V21H124.414ZM133.523 21.132C132.951 21.132 132.441 20.9963 131.994 20.725C131.547 20.4537 131.195 20.0833 130.938 19.614C130.681 19.1373 130.553 18.6057 130.553 18.019C130.553 17.425 130.678 16.897 130.927 16.435C131.184 15.973 131.528 15.61 131.961 15.346C132.401 15.0747 132.892 14.939 133.435 14.939C133.875 14.939 134.264 15.0197 134.601 15.181C134.946 15.335 135.235 15.5477 135.47 15.819C135.712 16.083 135.895 16.3873 136.02 16.732C136.152 17.0693 136.218 17.4213 136.218 17.788C136.218 17.8687 136.211 17.9603 136.196 18.063C136.189 18.1583 136.178 18.25 136.163 18.338H131.301V17.458H135.569L135.085 17.854C135.151 17.4727 135.114 17.1317 134.975 16.831C134.836 16.5303 134.63 16.292 134.359 16.116C134.088 15.94 133.78 15.852 133.435 15.852C133.09 15.852 132.775 15.94 132.489 16.116C132.203 16.292 131.979 16.545 131.818 16.875C131.664 17.1977 131.602 17.5827 131.631 18.03C131.602 18.4627 131.668 18.844 131.829 19.174C131.998 19.4967 132.232 19.7497 132.533 19.933C132.841 20.109 133.175 20.197 133.534 20.197C133.93 20.197 134.264 20.1053 134.535 19.922C134.806 19.7387 135.026 19.504 135.195 19.218L136.053 19.658C135.936 19.9293 135.752 20.1787 135.503 20.406C135.261 20.626 134.971 20.802 134.634 20.934C134.304 21.066 133.934 21.132 133.523 21.132Z" fill="white"/>
<path d="M47.8948 45L53.1348 30.1H56.0548L61.2948 45H58.7748L57.6348 41.66H51.5748L50.4148 45H47.8948ZM52.2548 39.56H56.9148L54.2748 31.76H54.9348L52.2548 39.56ZM62.8425 49V34.18H65.0025V36.42L64.7425 35.9C65.1425 35.2867 65.6758 34.8067 66.3425 34.46C67.0091 34.1133 67.7691 33.94 68.6225 33.94C69.6491 33.94 70.5691 34.1867 71.3825 34.68C72.2091 35.1733 72.8558 35.8467 73.3225 36.7C73.8025 37.5533 74.0425 38.5133 74.0425 39.58C74.0425 40.6467 73.8025 41.6067 73.3225 42.46C72.8558 43.3133 72.2158 43.9933 71.4025 44.5C70.5891 44.9933 69.6625 45.24 68.6225 45.24C67.7825 45.24 67.0158 45.0667 66.3225 44.72C65.6425 44.3733 65.1158 43.8733 64.7425 43.22L65.1025 42.8V49H62.8425ZM68.4025 43.14C69.0425 43.14 69.6091 42.9867 70.1025 42.68C70.5958 42.3733 70.9825 41.9533 71.2625 41.42C71.5558 40.8733 71.7025 40.26 71.7025 39.58C71.7025 38.9 71.5558 38.2933 71.2625 37.76C70.9825 37.2267 70.5958 36.8067 70.1025 36.5C69.6091 36.1933 69.0425 36.04 68.4025 36.04C67.7758 36.04 67.2091 36.1933 66.7025 36.5C66.2091 36.8067 65.8158 37.2267 65.5225 37.76C65.2425 38.2933 65.1025 38.9 65.1025 39.58C65.1025 40.26 65.2425 40.8733 65.5225 41.42C65.8158 41.9533 66.2091 42.3733 66.7025 42.68C67.2091 42.9867 67.7758 43.14 68.4025 43.14ZM76.2409 49V34.18H78.4009V36.42L78.1409 35.9C78.5409 35.2867 79.0742 34.8067 79.7409 34.46C80.4076 34.1133 81.1676 33.94 82.0209 33.94C83.0476 33.94 83.9676 34.1867 84.7809 34.68C85.6076 35.1733 86.2542 35.8467 86.7209 36.7C87.2009 37.5533 87.4409 38.5133 87.4409 39.58C87.4409 40.6467 87.2009 41.6067 86.7209 42.46C86.2542 43.3133 85.6142 43.9933 84.8009 44.5C83.9876 44.9933 83.0609 45.24 82.0209 45.24C81.1809 45.24 80.4142 45.0667 79.7209 44.72C79.0409 44.3733 78.5142 43.8733 78.1409 43.22L78.5009 42.8V49H76.2409ZM81.8009 43.14C82.4409 43.14 83.0076 42.9867 83.5009 42.68C83.9942 42.3733 84.3809 41.9533 84.6609 41.42C84.9542 40.8733 85.1009 40.26 85.1009 39.58C85.1009 38.9 84.9542 38.2933 84.6609 37.76C84.3809 37.2267 83.9942 36.8067 83.5009 36.5C83.0076 36.1933 82.4409 36.04 81.8009 36.04C81.1742 36.04 80.6076 36.1933 80.1009 36.5C79.6076 36.8067 79.2142 37.2267 78.9209 37.76C78.6409 38.2933 78.5009 38.9 78.5009 39.58C78.5009 40.26 78.6409 40.8733 78.9209 41.42C79.2142 41.9533 79.6076 42.3733 80.1009 42.68C80.6076 42.9867 81.1742 43.14 81.8009 43.14ZM98.5754 45.24C97.6421 45.24 96.7754 45.0667 95.9754 44.72C95.1754 44.36 94.4954 43.8733 93.9354 43.26C93.3754 42.6467 92.9621 41.94 92.6954 41.14L94.6954 40.3C95.0554 41.22 95.5821 41.9267 96.2754 42.42C96.9688 42.9133 97.7688 43.16 98.6754 43.16C99.2088 43.16 99.6754 43.08 100.075 42.92C100.475 42.7467 100.782 42.5067 100.995 42.2C101.222 41.8933 101.335 41.54 101.335 41.14C101.335 40.5933 101.182 40.16 100.875 39.84C100.569 39.52 100.115 39.2667 99.5154 39.08L96.7154 38.2C95.5954 37.8533 94.7421 37.3267 94.1554 36.62C93.5688 35.9 93.2754 35.06 93.2754 34.1C93.2754 33.26 93.4821 32.5267 93.8954 31.9C94.3088 31.26 94.8754 30.76 95.5954 30.4C96.3288 30.04 97.1621 29.86 98.0954 29.86C98.9888 29.86 99.8021 30.02 100.535 30.34C101.269 30.6467 101.895 31.0733 102.415 31.62C102.949 32.1667 103.335 32.8 103.575 33.52L101.615 34.38C101.322 33.5933 100.862 32.9867 100.235 32.56C99.6221 32.1333 98.9088 31.92 98.0954 31.92C97.6021 31.92 97.1688 32.0067 96.7954 32.18C96.4221 32.34 96.1288 32.58 95.9154 32.9C95.7154 33.2067 95.6154 33.5667 95.6154 33.98C95.6154 34.46 95.7688 34.8867 96.0754 35.26C96.3821 35.6333 96.8488 35.9133 97.4754 36.1L100.075 36.92C101.262 37.28 102.155 37.8 102.755 38.48C103.355 39.1467 103.655 39.98 103.655 40.98C103.655 41.8067 103.435 42.54 102.995 43.18C102.569 43.82 101.975 44.3267 101.215 44.7C100.455 45.06 99.5754 45.24 98.5754 45.24ZM110.765 45.12C109.631 45.12 108.751 44.8 108.125 44.16C107.498 43.52 107.185 42.62 107.185 41.46V36.22H105.285V34.18H105.585C106.091 34.18 106.485 34.0333 106.765 33.74C107.045 33.4467 107.185 33.0467 107.185 32.54V31.7H109.445V34.18H111.905V36.22H109.445V41.36C109.445 41.7333 109.505 42.0533 109.625 42.32C109.745 42.5733 109.938 42.7733 110.205 42.92C110.471 43.0533 110.818 43.12 111.245 43.12C111.351 43.12 111.471 43.1133 111.605 43.1C111.738 43.0867 111.865 43.0733 111.985 43.06V45C111.798 45.0267 111.591 45.0533 111.365 45.08C111.138 45.1067 110.938 45.12 110.765 45.12ZM119.215 45.24C118.175 45.24 117.221 44.9933 116.355 44.5C115.501 44.0067 114.821 43.3333 114.315 42.48C113.808 41.6267 113.555 40.66 113.555 39.58C113.555 38.4867 113.808 37.52 114.315 36.68C114.821 35.8267 115.501 35.16 116.355 34.68C117.208 34.1867 118.161 33.94 119.215 33.94C120.281 33.94 121.235 34.1867 122.075 34.68C122.928 35.16 123.601 35.8267 124.095 36.68C124.601 37.52 124.855 38.4867 124.855 39.58C124.855 40.6733 124.601 41.6467 124.095 42.5C123.588 43.3533 122.908 44.0267 122.055 44.52C121.201 45 120.255 45.24 119.215 45.24ZM119.215 43.14C119.855 43.14 120.421 42.9867 120.915 42.68C121.408 42.3733 121.795 41.9533 122.075 41.42C122.368 40.8733 122.515 40.26 122.515 39.58C122.515 38.9 122.368 38.2933 122.075 37.76C121.795 37.2267 121.408 36.8067 120.915 36.5C120.421 36.1933 119.855 36.04 119.215 36.04C118.588 36.04 118.021 36.1933 117.515 36.5C117.021 36.8067 116.628 37.2267 116.335 37.76C116.055 38.2933 115.915 38.9 115.915 39.58C115.915 40.26 116.055 40.8733 116.335 41.42C116.628 41.9533 117.021 42.3733 117.515 42.68C118.021 42.9867 118.588 43.14 119.215 43.14ZM127.061 45V34.18H129.221V36.36L129.021 36.04C129.261 35.3333 129.648 34.8267 130.181 34.52C130.715 34.2 131.355 34.04 132.101 34.04H132.761V36.1H131.821C131.075 36.1 130.468 36.3333 130.001 36.8C129.548 37.2533 129.321 37.9067 129.321 38.76V45H127.061ZM139.387 45.24C138.307 45.24 137.347 44.9933 136.507 44.5C135.681 43.9933 135.034 43.3133 134.567 42.46C134.101 41.5933 133.867 40.6267 133.867 39.56C133.867 38.4667 134.101 37.5 134.567 36.66C135.047 35.82 135.687 35.16 136.487 34.68C137.287 34.1867 138.194 33.94 139.207 33.94C140.021 33.94 140.747 34.08 141.387 34.36C142.027 34.64 142.567 35.0267 143.007 35.52C143.447 36 143.781 36.5533 144.007 37.18C144.247 37.8067 144.367 38.4733 144.367 39.18C144.367 39.3533 144.361 39.5333 144.347 39.72C144.334 39.9067 144.307 40.08 144.267 40.24H135.647V38.44H142.987L141.907 39.26C142.041 38.6067 141.994 38.0267 141.767 37.52C141.554 37 141.221 36.5933 140.767 36.3C140.327 35.9933 139.807 35.84 139.207 35.84C138.607 35.84 138.074 35.9933 137.607 36.3C137.141 36.5933 136.781 37.02 136.527 37.58C136.274 38.1267 136.174 38.7933 136.227 39.58C136.161 40.3133 136.261 40.9533 136.527 41.5C136.807 42.0467 137.194 42.4733 137.687 42.78C138.194 43.0867 138.767 43.24 139.407 43.24C140.061 43.24 140.614 43.0933 141.067 42.8C141.534 42.5067 141.901 42.1267 142.167 41.66L144.007 42.56C143.794 43.0667 143.461 43.5267 143.007 43.94C142.567 44.34 142.034 44.66 141.407 44.9C140.794 45.1267 140.121 45.24 139.387 45.24Z" fill="white"/>
</svg>
