<svg width="116" height="116" viewBox="0 0 116 116" fill="none" xmlns="http://www.w3.org/2000/svg">
<rect x="0.5" y="0.484436" width="115" height="115" rx="25" fill="#F6F9FE"/>
<path d="M59.4158 44.1792L45.7098 57.8852C45.5585 58.0365 45.4553 58.2293 45.4133 58.4392L44.0591 65.2104C43.9743 65.6344 43.7659 66.0239 43.4601 66.3296L39.283 70.5067C37.5723 72.2174 37.5723 74.9908 39.283 76.7015C40.9936 78.4121 43.7671 78.4121 45.4777 76.7015L49.6548 72.5243C49.9606 72.2186 50.35 72.0102 50.774 71.9254L57.5453 70.5711C57.7551 70.5291 57.9479 70.426 58.0993 70.2746L71.8053 56.5686M59.4158 44.1792L62.5132 41.0818C65.9344 37.6605 71.4814 37.6605 74.9026 41.0818C78.3239 44.5031 78.3239 50.05 74.9026 53.4712L71.8053 56.5686M59.4158 44.1792L53.2211 37.9844M59.4158 44.1792L71.8053 56.5686M71.8053 56.5686L78 62.7633M59.4158 56.5686L53.2211 62.7633" stroke="#0086FF" stroke-width="2" stroke-linecap="round" stroke-linejoin="round"/>
</svg>
