<svg width="179" height="59" viewBox="0 0 179 59" fill="none" xmlns="http://www.w3.org/2000/svg">
<rect x="0.674805" width="177.747" height="59" rx="8" fill="black"/>
<path d="M11.2923 13.2976C10.9012 13.6974 10.6748 14.3198 10.6748 15.1258V43.8753C10.6748 44.6813 10.9012 45.3036 11.2923 45.7034L11.3888 45.7911L27.8894 29.6874V29.3071L11.3888 13.2034L11.2923 13.2976Z" fill="url(#paint0_linear_6_150)"/>
<path d="M33.3835 35.058L27.8894 29.6874V29.3071L33.3902 23.9365L33.5133 24.0064L40.0277 27.6252C41.8868 28.6522 41.8868 30.3422 40.0277 31.3757L33.5133 34.9881L33.3835 35.058Z" fill="url(#paint1_linear_6_150)"/>
<path d="M33.5133 34.9882L27.8894 29.4973L11.2922 45.7034C11.9097 46.3372 12.9167 46.4135 14.0618 45.7798L33.5133 34.9882Z" fill="url(#paint2_linear_6_150)"/>
<path d="M33.5133 24.0064L14.0618 13.2148C12.9167 12.5876 11.9097 12.6639 11.2922 13.2977L27.8894 29.4973L33.5133 24.0064Z" fill="url(#paint3_linear_6_150)"/>
<path d="M52.335 21V12.805H55.019C55.8477 12.805 56.57 12.9737 57.186 13.311C57.802 13.6483 58.2787 14.125 58.616 14.741C58.9533 15.3497 59.122 16.0683 59.122 16.897C59.122 17.7183 58.9533 18.437 58.616 19.053C58.2787 19.669 57.802 20.1493 57.186 20.494C56.57 20.8313 55.8477 21 55.019 21H52.335ZM53.413 20.01H55.03C55.6387 20.01 56.163 19.8817 56.603 19.625C57.0503 19.3683 57.395 19.009 57.637 18.547C57.879 18.0777 58 17.5277 58 16.897C58 16.259 57.8753 15.709 57.626 15.247C57.384 14.785 57.0393 14.4293 56.592 14.18C56.152 13.9233 55.6313 13.795 55.03 13.795H53.413V20.01ZM63.1833 21.132C62.6113 21.132 62.0943 21 61.6323 20.736C61.1703 20.4647 60.8037 20.0943 60.5323 19.625C60.261 19.1557 60.1253 18.624 60.1253 18.03C60.1253 17.436 60.2573 16.908 60.5213 16.446C60.7927 15.984 61.1593 15.6173 61.6213 15.346C62.0833 15.0747 62.604 14.939 63.1833 14.939C63.7553 14.939 64.2723 15.0747 64.7343 15.346C65.1963 15.61 65.5593 15.973 65.8233 16.435C66.0947 16.897 66.2303 17.4287 66.2303 18.03C66.2303 18.6313 66.091 19.1667 65.8123 19.636C65.5337 20.098 65.1633 20.4647 64.7013 20.736C64.2467 21 63.7407 21.132 63.1833 21.132ZM63.1833 20.142C63.55 20.142 63.88 20.0503 64.1733 19.867C64.474 19.6837 64.7087 19.4307 64.8773 19.108C65.0533 18.7853 65.1413 18.426 65.1413 18.03C65.1413 17.6267 65.0533 17.271 64.8773 16.963C64.7087 16.6477 64.474 16.3983 64.1733 16.215C63.88 16.0243 63.55 15.929 63.1833 15.929C62.8093 15.929 62.472 16.0243 62.1713 16.215C61.878 16.3983 61.6433 16.6477 61.4673 16.963C61.2913 17.271 61.2033 17.6267 61.2033 18.03C61.2033 18.426 61.2913 18.7853 61.4673 19.108C61.6433 19.4307 61.878 19.6837 62.1713 19.867C62.472 20.0503 62.8093 20.142 63.1833 20.142ZM68.8212 21L66.7862 15.071H67.9192L69.5362 20.032L69.1402 20.021L70.7242 15.071H71.6922L73.2762 20.021L72.8802 20.032L74.5082 15.071H75.6302L73.5952 21H72.6162L71.0542 16.05H71.3622L69.8002 21H68.8212ZM76.5451 21V15.071H77.5461V16.226L77.3811 16.127C77.5277 15.753 77.7624 15.4633 78.0851 15.258C78.4151 15.0453 78.8001 14.939 79.2401 14.939C79.6654 14.939 80.0431 15.0343 80.3731 15.225C80.7104 15.4157 80.9744 15.6797 81.1651 16.017C81.3631 16.3543 81.4621 16.7357 81.4621 17.161V21H80.4281V17.491C80.4281 17.161 80.3694 16.8823 80.2521 16.655C80.1347 16.4277 79.9661 16.2517 79.7461 16.127C79.5334 15.995 79.2877 15.929 79.0091 15.929C78.7304 15.929 78.4811 15.995 78.2611 16.127C78.0484 16.2517 77.8797 16.4313 77.7551 16.666C77.6304 16.8933 77.5681 17.1683 77.5681 17.491V21H76.5451ZM82.9259 21V12.673H83.9489V21H82.9259ZM88.3523 21.132C87.7803 21.132 87.2633 21 86.8013 20.736C86.3393 20.4647 85.9726 20.0943 85.7013 19.625C85.4299 19.1557 85.2943 18.624 85.2943 18.03C85.2943 17.436 85.4263 16.908 85.6903 16.446C85.9616 15.984 86.3283 15.6173 86.7903 15.346C87.2523 15.0747 87.7729 14.939 88.3523 14.939C88.9243 14.939 89.4413 15.0747 89.9033 15.346C90.3653 15.61 90.7283 15.973 90.9923 16.435C91.2636 16.897 91.3993 17.4287 91.3993 18.03C91.3993 18.6313 91.2599 19.1667 90.9813 19.636C90.7026 20.098 90.3323 20.4647 89.8703 20.736C89.4156 21 88.9096 21.132 88.3523 21.132ZM88.3523 20.142C88.7189 20.142 89.0489 20.0503 89.3423 19.867C89.6429 19.6837 89.8776 19.4307 90.0463 19.108C90.2223 18.7853 90.3103 18.426 90.3103 18.03C90.3103 17.6267 90.2223 17.271 90.0463 16.963C89.8776 16.6477 89.6429 16.3983 89.3423 16.215C89.0489 16.0243 88.7189 15.929 88.3523 15.929C87.9783 15.929 87.6409 16.0243 87.3403 16.215C87.0469 16.3983 86.8123 16.6477 86.6363 16.963C86.4603 17.271 86.3723 17.6267 86.3723 18.03C86.3723 18.426 86.4603 18.7853 86.6363 19.108C86.8123 19.4307 87.0469 19.6837 87.3403 19.867C87.6409 20.0503 87.9783 20.142 88.3523 20.142ZM94.4715 21.132C94.0829 21.132 93.7382 21.0623 93.4375 20.923C93.1442 20.7763 92.9132 20.5783 92.7445 20.329C92.5759 20.0723 92.4915 19.779 92.4915 19.449C92.4915 19.1337 92.5575 18.8513 92.6895 18.602C92.8289 18.3453 93.0415 18.129 93.3275 17.953C93.6209 17.777 93.9875 17.6523 94.4275 17.579L96.6275 17.216V18.074L94.6585 18.404C94.2772 18.47 93.9985 18.591 93.8225 18.767C93.6539 18.943 93.5695 19.1593 93.5695 19.416C93.5695 19.658 93.6649 19.8597 93.8555 20.021C94.0535 20.1823 94.2992 20.263 94.5925 20.263C94.9665 20.263 95.2892 20.186 95.5605 20.032C95.8392 19.8707 96.0555 19.6543 96.2095 19.383C96.3709 19.1117 96.4515 18.811 96.4515 18.481V16.974C96.4515 16.6513 96.3305 16.391 96.0885 16.193C95.8539 15.9877 95.5422 15.885 95.1535 15.885C94.8162 15.885 94.5155 15.973 94.2515 16.149C93.9949 16.3177 93.8042 16.545 93.6795 16.831L92.7885 16.369C92.8985 16.0977 93.0745 15.8557 93.3165 15.643C93.5585 15.423 93.8409 15.2507 94.1635 15.126C94.4862 15.0013 94.8235 14.939 95.1755 14.939C95.6302 14.939 96.0299 15.027 96.3745 15.203C96.7192 15.3717 96.9869 15.61 97.1775 15.918C97.3755 16.2187 97.4745 16.5707 97.4745 16.974V21H96.4735V19.878L96.6605 19.944C96.5359 20.1787 96.3672 20.384 96.1545 20.56C95.9419 20.736 95.6925 20.8753 95.4065 20.978C95.1205 21.0807 94.8089 21.132 94.4715 21.132ZM101.756 21.132C101.198 21.132 100.696 20.9963 100.249 20.725C99.8087 20.4537 99.4603 20.0833 99.2037 19.614C98.947 19.1447 98.8187 18.6203 98.8187 18.041C98.8187 17.447 98.947 16.919 99.2037 16.457C99.4603 15.9877 99.8087 15.6173 100.249 15.346C100.696 15.0747 101.198 14.939 101.756 14.939C102.247 14.939 102.683 15.0453 103.065 15.258C103.446 15.4633 103.747 15.742 103.967 16.094L103.802 16.347V12.673H104.836V21H103.835V19.735L103.967 19.911C103.761 20.2997 103.461 20.6003 103.065 20.813C102.676 21.0257 102.24 21.132 101.756 21.132ZM101.844 20.142C102.218 20.142 102.551 20.0503 102.845 19.867C103.138 19.6837 103.369 19.4343 103.538 19.119C103.714 18.7963 103.802 18.437 103.802 18.041C103.802 17.6377 103.714 17.2783 103.538 16.963C103.369 16.6403 103.138 16.3873 102.845 16.204C102.551 16.0207 102.218 15.929 101.844 15.929C101.477 15.929 101.143 16.0243 100.843 16.215C100.549 16.3983 100.318 16.6477 100.15 16.963C99.981 17.271 99.8967 17.6303 99.8967 18.041C99.8967 18.437 99.981 18.7963 100.15 19.119C100.318 19.4343 100.549 19.6837 100.843 19.867C101.136 20.0503 101.47 20.142 101.844 20.142ZM111.136 21.132C110.564 21.132 110.047 21 109.585 20.736C109.123 20.4647 108.757 20.0943 108.485 19.625C108.214 19.1557 108.078 18.624 108.078 18.03C108.078 17.436 108.21 16.908 108.474 16.446C108.746 15.984 109.112 15.6173 109.574 15.346C110.036 15.0747 110.557 14.939 111.136 14.939C111.708 14.939 112.225 15.0747 112.687 15.346C113.149 15.61 113.512 15.973 113.776 16.435C114.048 16.897 114.183 17.4287 114.183 18.03C114.183 18.6313 114.044 19.1667 113.765 19.636C113.487 20.098 113.116 20.4647 112.654 20.736C112.2 21 111.694 21.132 111.136 21.132ZM111.136 20.142C111.503 20.142 111.833 20.0503 112.126 19.867C112.427 19.6837 112.662 19.4307 112.83 19.108C113.006 18.7853 113.094 18.426 113.094 18.03C113.094 17.6267 113.006 17.271 112.83 16.963C112.662 16.6477 112.427 16.3983 112.126 16.215C111.833 16.0243 111.503 15.929 111.136 15.929C110.762 15.929 110.425 16.0243 110.124 16.215C109.831 16.3983 109.596 16.6477 109.42 16.963C109.244 17.271 109.156 17.6267 109.156 18.03C109.156 18.426 109.244 18.7853 109.42 19.108C109.596 19.4307 109.831 19.6837 110.124 19.867C110.425 20.0503 110.762 20.142 111.136 20.142ZM115.518 21V15.071H116.519V16.226L116.354 16.127C116.5 15.753 116.735 15.4633 117.058 15.258C117.388 15.0453 117.773 14.939 118.213 14.939C118.638 14.939 119.016 15.0343 119.346 15.225C119.683 15.4157 119.947 15.6797 120.138 16.017C120.336 16.3543 120.435 16.7357 120.435 17.161V21H119.401V17.491C119.401 17.161 119.342 16.8823 119.225 16.655C119.107 16.4277 118.939 16.2517 118.719 16.127C118.506 15.995 118.26 15.929 117.982 15.929C117.703 15.929 117.454 15.995 117.234 16.127C117.021 16.2517 116.852 16.4313 116.728 16.666C116.603 16.8933 116.541 17.1683 116.541 17.491V21H115.518ZM126.209 21.066C125.63 21.066 125.182 20.901 124.867 20.571C124.559 20.241 124.405 19.7753 124.405 19.174V16.05H123.327V15.071H123.547C123.811 15.071 124.02 14.9903 124.174 14.829C124.328 14.6677 124.405 14.455 124.405 14.191V13.707H125.428V15.071H126.759V16.05H125.428V19.141C125.428 19.339 125.457 19.5113 125.516 19.658C125.582 19.8047 125.688 19.922 125.835 20.01C125.982 20.0907 126.176 20.131 126.418 20.131C126.469 20.131 126.532 20.1273 126.605 20.12C126.686 20.1127 126.759 20.1053 126.825 20.098V21C126.73 21.022 126.623 21.0367 126.506 21.044C126.389 21.0587 126.29 21.066 126.209 21.066ZM128.161 21V12.673H129.184V16.226L128.997 16.127C129.144 15.753 129.379 15.4633 129.701 15.258C130.031 15.0453 130.416 14.939 130.856 14.939C131.282 14.939 131.659 15.0343 131.989 15.225C132.327 15.4157 132.591 15.6797 132.781 16.017C132.979 16.3543 133.078 16.7357 133.078 17.161V21H132.044V17.491C132.044 17.161 131.982 16.8823 131.857 16.655C131.74 16.4277 131.575 16.2517 131.362 16.127C131.15 15.995 130.904 15.929 130.625 15.929C130.354 15.929 130.108 15.995 129.888 16.127C129.668 16.2517 129.496 16.4313 129.371 16.666C129.247 16.8933 129.184 17.1683 129.184 17.491V21H128.161ZM137.27 21.132C136.698 21.132 136.188 20.9963 135.741 20.725C135.294 20.4537 134.942 20.0833 134.685 19.614C134.428 19.1373 134.3 18.6057 134.3 18.019C134.3 17.425 134.425 16.897 134.674 16.435C134.931 15.973 135.275 15.61 135.708 15.346C136.148 15.0747 136.639 14.939 137.182 14.939C137.622 14.939 138.011 15.0197 138.348 15.181C138.693 15.335 138.982 15.5477 139.217 15.819C139.459 16.083 139.642 16.3873 139.767 16.732C139.899 17.0693 139.965 17.4213 139.965 17.788C139.965 17.8687 139.958 17.9603 139.943 18.063C139.936 18.1583 139.925 18.25 139.91 18.338H135.048V17.458H139.316L138.832 17.854C138.898 17.4727 138.861 17.1317 138.722 16.831C138.583 16.5303 138.377 16.292 138.106 16.116C137.835 15.94 137.527 15.852 137.182 15.852C136.837 15.852 136.522 15.94 136.236 16.116C135.95 16.292 135.726 16.545 135.565 16.875C135.411 17.1977 135.349 17.5827 135.378 18.03C135.349 18.4627 135.415 18.844 135.576 19.174C135.745 19.4967 135.979 19.7497 136.28 19.933C136.588 20.109 136.922 20.197 137.281 20.197C137.677 20.197 138.011 20.1053 138.282 19.922C138.553 19.7387 138.773 19.504 138.942 19.218L139.8 19.658C139.683 19.9293 139.499 20.1787 139.25 20.406C139.008 20.626 138.718 20.802 138.381 20.934C138.051 21.066 137.681 21.132 137.27 21.132Z" fill="white"/>
<path d="M59.942 45.24C58.8887 45.24 57.9087 45.0467 57.002 44.66C56.1087 44.2733 55.322 43.74 54.642 43.06C53.9753 42.3667 53.4553 41.5533 53.082 40.62C52.7087 39.6867 52.522 38.66 52.522 37.54C52.522 36.4333 52.702 35.4133 53.062 34.48C53.4353 33.5333 53.9553 32.72 54.622 32.04C55.2887 31.3467 56.0687 30.8133 56.962 30.44C57.8553 30.0533 58.8353 29.86 59.902 29.86C60.9553 29.86 61.8953 30.04 62.722 30.4C63.562 30.76 64.2687 31.2333 64.842 31.82C65.4153 32.3933 65.8287 33.02 66.082 33.7L63.982 34.72C63.6753 33.9067 63.1687 33.2533 62.462 32.76C61.7553 32.2533 60.902 32 59.902 32C58.9153 32 58.042 32.2333 57.282 32.7C56.522 33.1667 55.9287 33.8133 55.502 34.64C55.0887 35.4667 54.882 36.4333 54.882 37.54C54.882 38.6467 55.0953 39.62 55.522 40.46C55.962 41.2867 56.562 41.9333 57.322 42.4C58.082 42.8533 58.9553 43.08 59.942 43.08C60.7687 43.08 61.522 42.9133 62.202 42.58C62.8953 42.2333 63.4487 41.7533 63.862 41.14C64.2753 40.5133 64.482 39.7867 64.482 38.96V37.94L65.542 38.9H59.902V36.9H66.822V38.3C66.822 39.3933 66.6353 40.3733 66.262 41.24C65.8887 42.0933 65.382 42.82 64.742 43.42C64.102 44.02 63.3687 44.4733 62.542 44.78C61.7153 45.0867 60.8487 45.24 59.942 45.24ZM74.2315 45.24C73.1915 45.24 72.2382 44.9933 71.3715 44.5C70.5182 44.0067 69.8382 43.3333 69.3315 42.48C68.8249 41.6267 68.5715 40.66 68.5715 39.58C68.5715 38.4867 68.8249 37.52 69.3315 36.68C69.8382 35.8267 70.5182 35.16 71.3715 34.68C72.2249 34.1867 73.1782 33.94 74.2315 33.94C75.2982 33.94 76.2515 34.1867 77.0915 34.68C77.9449 35.16 78.6182 35.8267 79.1115 36.68C79.6182 37.52 79.8715 38.4867 79.8715 39.58C79.8715 40.6733 79.6182 41.6467 79.1115 42.5C78.6049 43.3533 77.9249 44.0267 77.0715 44.52C76.2182 45 75.2715 45.24 74.2315 45.24ZM74.2315 43.14C74.8715 43.14 75.4382 42.9867 75.9315 42.68C76.4249 42.3733 76.8115 41.9533 77.0915 41.42C77.3849 40.8733 77.5315 40.26 77.5315 39.58C77.5315 38.9 77.3849 38.2933 77.0915 37.76C76.8115 37.2267 76.4249 36.8067 75.9315 36.5C75.4382 36.1933 74.8715 36.04 74.2315 36.04C73.6049 36.04 73.0382 36.1933 72.5315 36.5C72.0382 36.8067 71.6449 37.2267 71.3515 37.76C71.0715 38.2933 70.9315 38.9 70.9315 39.58C70.9315 40.26 71.0715 40.8733 71.3515 41.42C71.6449 41.9533 72.0382 42.3733 72.5315 42.68C73.0382 42.9867 73.6049 43.14 74.2315 43.14ZM87.2979 45.24C86.2579 45.24 85.3046 44.9933 84.4379 44.5C83.5846 44.0067 82.9046 43.3333 82.3979 42.48C81.8913 41.6267 81.6379 40.66 81.6379 39.58C81.6379 38.4867 81.8913 37.52 82.3979 36.68C82.9046 35.8267 83.5846 35.16 84.4379 34.68C85.2913 34.1867 86.2446 33.94 87.2979 33.94C88.3646 33.94 89.3179 34.1867 90.1579 34.68C91.0113 35.16 91.6846 35.8267 92.1779 36.68C92.6846 37.52 92.9379 38.4867 92.9379 39.58C92.9379 40.6733 92.6846 41.6467 92.1779 42.5C91.6713 43.3533 90.9913 44.0267 90.1379 44.52C89.2846 45 88.3379 45.24 87.2979 45.24ZM87.2979 43.14C87.9379 43.14 88.5046 42.9867 88.9979 42.68C89.4913 42.3733 89.8779 41.9533 90.1579 41.42C90.4513 40.8733 90.5979 40.26 90.5979 39.58C90.5979 38.9 90.4513 38.2933 90.1579 37.76C89.8779 37.2267 89.4913 36.8067 88.9979 36.5C88.5046 36.1933 87.9379 36.04 87.2979 36.04C86.6713 36.04 86.1046 36.1933 85.5979 36.5C85.1046 36.8067 84.7113 37.2267 84.4179 37.76C84.1379 38.2933 83.9979 38.9 83.9979 39.58C83.9979 40.26 84.1379 40.8733 84.4179 41.42C84.7113 41.9533 85.1046 42.3733 85.5979 42.68C86.1046 42.9867 86.6713 43.14 87.2979 43.14ZM100.364 49.4C99.5777 49.4 98.851 49.2733 98.1843 49.02C97.5177 48.7667 96.9443 48.4133 96.4643 47.96C95.9843 47.52 95.6243 47 95.3843 46.4L97.4643 45.54C97.651 46.0467 97.991 46.4667 98.4843 46.8C98.991 47.1333 99.611 47.3 100.344 47.3C100.918 47.3 101.431 47.1867 101.884 46.96C102.338 46.7467 102.698 46.4267 102.964 46C103.231 45.5867 103.364 45.0867 103.364 44.5V42.06L103.764 42.52C103.391 43.2133 102.871 43.74 102.204 44.1C101.551 44.46 100.811 44.64 99.9843 44.64C98.9843 44.64 98.0843 44.4067 97.2843 43.94C96.4843 43.4733 95.851 42.8333 95.3843 42.02C94.931 41.2067 94.7043 40.2933 94.7043 39.28C94.7043 38.2533 94.931 37.34 95.3843 36.54C95.851 35.74 96.4777 35.1067 97.2643 34.64C98.051 34.1733 98.951 33.94 99.9643 33.94C100.791 33.94 101.524 34.12 102.164 34.48C102.818 34.8267 103.351 35.3333 103.764 36L103.464 36.56V34.18H105.604V44.5C105.604 45.4333 105.378 46.2667 104.924 47C104.484 47.7467 103.871 48.3333 103.084 48.76C102.298 49.1867 101.391 49.4 100.364 49.4ZM100.244 42.54C100.844 42.54 101.378 42.4 101.844 42.12C102.311 41.8267 102.678 41.44 102.944 40.96C103.224 40.4667 103.364 39.9133 103.364 39.3C103.364 38.6867 103.224 38.1333 102.944 37.64C102.664 37.1467 102.291 36.76 101.824 36.48C101.358 36.1867 100.831 36.04 100.244 36.04C99.631 36.04 99.0843 36.1867 98.6043 36.48C98.1243 36.76 97.7443 37.1467 97.4643 37.64C97.1977 38.12 97.0643 38.6733 97.0643 39.3C97.0643 39.9 97.1977 40.4467 97.4643 40.94C97.7443 41.4333 98.1243 41.8267 98.6043 42.12C99.0843 42.4 99.631 42.54 100.244 42.54ZM108.25 45V29.86H110.51V45H108.25ZM118.232 45.24C117.152 45.24 116.192 44.9933 115.352 44.5C114.525 43.9933 113.879 43.3133 113.412 42.46C112.945 41.5933 112.712 40.6267 112.712 39.56C112.712 38.4667 112.945 37.5 113.412 36.66C113.892 35.82 114.532 35.16 115.332 34.68C116.132 34.1867 117.039 33.94 118.052 33.94C118.865 33.94 119.592 34.08 120.232 34.36C120.872 34.64 121.412 35.0267 121.852 35.52C122.292 36 122.625 36.5533 122.852 37.18C123.092 37.8067 123.212 38.4733 123.212 39.18C123.212 39.3533 123.205 39.5333 123.192 39.72C123.179 39.9067 123.152 40.08 123.112 40.24H114.492V38.44H121.832L120.752 39.26C120.885 38.6067 120.839 38.0267 120.612 37.52C120.399 37 120.065 36.5933 119.612 36.3C119.172 35.9933 118.652 35.84 118.052 35.84C117.452 35.84 116.919 35.9933 116.452 36.3C115.985 36.5933 115.625 37.02 115.372 37.58C115.119 38.1267 115.019 38.7933 115.072 39.58C115.005 40.3133 115.105 40.9533 115.372 41.5C115.652 42.0467 116.039 42.4733 116.532 42.78C117.039 43.0867 117.612 43.24 118.252 43.24C118.905 43.24 119.459 43.0933 119.912 42.8C120.379 42.5067 120.745 42.1267 121.012 41.66L122.852 42.56C122.639 43.0667 122.305 43.5267 121.852 43.94C121.412 44.34 120.879 44.66 120.252 44.9C119.639 45.1267 118.965 45.24 118.232 45.24ZM129.134 45V30.1H134.554C135.554 30.1 136.434 30.2867 137.194 30.66C137.967 31.02 138.567 31.5533 138.994 32.26C139.421 32.9533 139.634 33.7867 139.634 34.76C139.634 35.72 139.414 36.5467 138.974 37.24C138.547 37.9333 137.954 38.4667 137.194 38.84C136.434 39.2133 135.554 39.4 134.554 39.4H131.494V45H129.134ZM131.494 37.3H134.614C135.147 37.3 135.614 37.1933 136.014 36.98C136.414 36.7667 136.727 36.4733 136.954 36.1C137.181 35.7133 137.294 35.26 137.294 34.74C137.294 34.22 137.181 33.7733 136.954 33.4C136.727 33.0133 136.414 32.72 136.014 32.52C135.614 32.3067 135.147 32.2 134.614 32.2H131.494V37.3ZM141.844 45V29.86H144.104V45H141.844ZM149.986 45.24C149.253 45.24 148.606 45.1133 148.046 44.86C147.499 44.5933 147.073 44.2333 146.766 43.78C146.459 43.3133 146.306 42.7667 146.306 42.14C146.306 41.5533 146.433 41.0267 146.686 40.56C146.953 40.0933 147.359 39.7 147.906 39.38C148.453 39.06 149.139 38.8333 149.966 38.7L153.726 38.08V39.86L150.406 40.44C149.806 40.5467 149.366 40.74 149.086 41.02C148.806 41.2867 148.666 41.6333 148.666 42.06C148.666 42.4733 148.819 42.8133 149.126 43.08C149.446 43.3333 149.853 43.46 150.346 43.46C150.959 43.46 151.493 43.3267 151.946 43.06C152.413 42.7933 152.773 42.44 153.026 42C153.279 41.5467 153.406 41.0467 153.406 40.5V37.72C153.406 37.1867 153.206 36.7533 152.806 36.42C152.419 36.0733 151.899 35.9 151.246 35.9C150.646 35.9 150.119 36.06 149.666 36.38C149.226 36.6867 148.899 37.0867 148.686 37.58L146.806 36.64C147.006 36.1067 147.333 35.64 147.786 35.24C148.239 34.8267 148.766 34.5067 149.366 34.28C149.979 34.0533 150.626 33.94 151.306 33.94C152.159 33.94 152.913 34.1 153.566 34.42C154.233 34.74 154.746 35.1867 155.106 35.76C155.479 36.32 155.666 36.9733 155.666 37.72V45H153.506V43.04L153.966 43.1C153.713 43.54 153.386 43.92 152.986 44.24C152.599 44.56 152.153 44.8067 151.646 44.98C151.153 45.1533 150.599 45.24 149.986 45.24ZM159.268 49.4C159.002 49.4 158.735 49.3733 158.468 49.32C158.215 49.28 157.982 49.2133 157.768 49.12V47.18C157.928 47.22 158.122 47.2533 158.348 47.28C158.575 47.32 158.795 47.34 159.008 47.34C159.635 47.34 160.095 47.2 160.388 46.92C160.695 46.6533 160.968 46.24 161.208 45.68L161.928 44.04L161.888 45.94L157.208 34.18H159.628L163.088 43.2H162.268L165.708 34.18H168.148L163.368 46.18C163.115 46.82 162.795 47.38 162.408 47.86C162.035 48.3533 161.588 48.7333 161.068 49C160.562 49.2667 159.962 49.4 159.268 49.4Z" fill="white"/>
<defs>
<linearGradient id="paint0_linear_6_150" x1="26.4244" y1="44.1747" x2="4.61351" y2="21.8353" gradientUnits="userSpaceOnUse">
<stop stop-color="#00A0FF"/>
<stop offset="0.0066" stop-color="#00A1FF"/>
<stop offset="0.2601" stop-color="#00BEFF"/>
<stop offset="0.5122" stop-color="#00D2FF"/>
<stop offset="0.7604" stop-color="#00DFFF"/>
<stop offset="1" stop-color="#00E3FF"/>
</linearGradient>
<linearGradient id="paint1_linear_6_150" x1="42.4486" y1="29.4954" x2="10.2304" y2="29.4954" gradientUnits="userSpaceOnUse">
<stop stop-color="#FFE000"/>
<stop offset="0.4087" stop-color="#FFBD00"/>
<stop offset="0.7754" stop-color="#FFA500"/>
<stop offset="1" stop-color="#FF9C00"/>
</linearGradient>
<linearGradient id="paint2_linear_6_150" x1="30.4552" y1="26.5124" x2="0.877882" y2="-3.78165" gradientUnits="userSpaceOnUse">
<stop stop-color="#FF3A44"/>
<stop offset="1" stop-color="#C31162"/>
</linearGradient>
<linearGradient id="paint3_linear_6_150" x1="7.11439" y1="55.2683" x2="20.322" y2="41.7408" gradientUnits="userSpaceOnUse">
<stop stop-color="#32A071"/>
<stop offset="0.0685" stop-color="#2DA771"/>
<stop offset="0.4762" stop-color="#15CF74"/>
<stop offset="0.8009" stop-color="#06E775"/>
<stop offset="1" stop-color="#00F076"/>
</linearGradient>
</defs>
</svg>
