<svg width="116" height="116" viewBox="0 0 116 116" fill="none" xmlns="http://www.w3.org/2000/svg">
<rect x="0.833252" y="0.484436" width="115" height="115" rx="25" fill="#F6F9FE"/>
<path d="M58.3333 69.5327V44.7448M58.3333 69.5327C58.3333 64.5545 62.3689 60.5189 67.3471 60.5189M58.3333 69.5327C58.3333 64.5545 54.2977 60.5189 49.3195 60.5189M58.3333 69.5327C58.3333 71.7861 58.6407 72.6205 59.46 74.0396C61.638 77.8119 66.4616 79.1044 70.234 76.9265C73.6931 74.9293 75.0671 70.7076 73.5921 67.1118C77.7386 66.3018 80.8677 62.649 80.8677 58.2655C80.8677 53.2873 76.8321 49.2517 71.8539 49.2517L71.854 44.7448C71.854 41.0111 68.8273 37.9844 65.0937 37.9844C61.36 37.9844 58.3333 41.0111 58.3333 44.7448M58.3333 69.5327C58.3333 71.7861 58.0259 72.6205 57.2066 74.0396C55.0286 77.8119 50.205 79.1044 46.4327 76.9265C42.9736 74.9293 41.5996 70.7076 43.0745 67.1118C38.928 66.3018 35.7989 62.649 35.7989 58.2655C35.7989 53.2873 39.8345 49.2517 44.8127 49.2517L44.8126 44.7448C44.8126 41.0111 47.8393 37.9844 51.573 37.9844C55.3066 37.9844 58.3333 41.0111 58.3333 44.7448" stroke="#0086FF" stroke-width="2" stroke-linecap="round" stroke-linejoin="round"/>
</svg>
