<svg width="34" height="34" viewBox="0 0 34 34" fill="none" xmlns="http://www.w3.org/2000/svg">
<circle cx="17" cy="17" r="16" stroke="#9BABBA" stroke-width="2"/>
<path d="M26.1667 9.5C25.3687 10.0629 24.4851 10.4934 23.55 10.775C23.0482 10.1979 22.3812 9.78891 21.6392 9.60327C20.8973 9.41764 20.1163 9.46433 19.4018 9.73705C18.6873 10.0098 18.0737 10.4953 17.6442 11.1281C17.2146 11.7609 16.9898 12.5103 17 13.275V14.1083C15.5356 14.1463 14.0844 13.8215 12.7759 13.1629C11.4673 12.5042 10.342 11.5322 9.50004 10.3333C9.50004 10.3333 6.16671 17.8333 13.6667 21.1667C11.9505 22.3316 9.906 22.9158 7.83337 22.8333C15.3334 27 24.5 22.8333 24.5 13.25C24.4993 13.0179 24.477 12.7863 24.4334 12.5583C25.2839 11.7196 25.8841 10.6606 26.1667 9.5Z" stroke="#9BABBA" stroke-linecap="round" stroke-linejoin="round"/>
</svg>
