<svg width="34" height="34" viewBox="0 0 34 34" fill="none" xmlns="http://www.w3.org/2000/svg">
<path d="M21.5833 12.4167H21.5916M12.8333 8.66667H21.1666C23.4678 8.66667 25.3333 10.5322 25.3333 12.8333V21.1667C25.3333 23.4679 23.4678 25.3333 21.1666 25.3333H12.8333C10.5321 25.3333 8.66663 23.4679 8.66663 21.1667V12.8333C8.66663 10.5322 10.5321 8.66667 12.8333 8.66667ZM20.3333 16.475C20.4361 17.1685 20.3177 17.8769 19.9948 18.4992C19.6718 19.1215 19.1609 19.6262 18.5346 19.9414C17.9084 20.2566 17.1987 20.3663 16.5064 20.2549C15.8142 20.1436 15.1748 19.8167 14.679 19.321C14.1832 18.8252 13.8564 18.1857 13.745 17.4935C13.6336 16.8013 13.7433 16.0916 14.0586 15.4653C14.3738 14.839 14.8784 14.3281 15.5008 14.0052C16.1231 13.6823 16.8314 13.5638 17.525 13.6667C18.2324 13.7716 18.8873 14.1012 19.393 14.6069C19.8987 15.1126 20.2284 15.7676 20.3333 16.475Z" stroke="#9BABBA" stroke-linecap="round" stroke-linejoin="round"/>
<circle cx="17" cy="17" r="16" stroke="#9BABBA" stroke-width="2"/>
</svg>
